<svg width="40" height="40" viewBox="0 0 40 40" fill="none" xmlns="http://www.w3.org/2000/svg">
<circle cx="20" cy="20" r="20" fill="black"/>
<path d="M12.0994 23.8178C11.4852 24.1176 10.7361 23.8644 10.5144 23.2178C9.90368 21.4374 9.80523 19.5118 10.2438 17.6641C10.7781 15.4131 12.0763 13.4169 13.9174 12.0158C15.7584 10.6147 18.0283 9.89533 20.3403 9.9802C22.6523 10.0651 24.8634 10.949 26.5967 12.4813C28.3301 14.0136 29.4785 16.0995 29.8463 18.3837C30.2141 20.6678 29.7785 23.0088 28.6138 25.0078C27.4491 27.0068 25.6273 28.5401 23.4588 29.3464C21.6789 30.0083 19.7557 30.1468 17.9138 29.7591C17.2449 29.6183 16.9017 28.906 17.124 28.2596V28.2596C17.3463 27.6132 18.0506 27.2805 18.7246 27.3939C20.0179 27.6116 21.3534 27.4885 22.5961 27.0264C24.2278 26.4197 25.5987 25.2659 26.4751 23.7617C27.3516 22.2575 27.6793 20.4959 27.4025 18.7772C27.1258 17.0584 26.2616 15.4888 24.9573 14.3358C23.653 13.1827 21.9892 12.5176 20.2495 12.4537C18.5098 12.3899 16.8017 12.9312 15.4164 13.9855C14.0311 15.0398 13.0541 16.5419 12.6521 18.2357C12.3459 19.5257 12.3876 20.8662 12.7622 22.1231C12.9575 22.7781 12.7136 23.5179 12.0994 23.8178V23.8178Z" fill="#1A75BB"/>
<path d="M19.2738 14.5477C19.1936 14.0069 19.5683 13.4955 20.1151 13.497C21.2491 13.5001 22.3692 13.7956 23.3642 14.3624C24.6475 15.0936 25.6485 16.234 26.207 17.6013C26.7655 18.9686 26.8492 20.4836 26.4448 21.9041C26.0404 23.3246 25.1712 24.5685 23.9764 25.4366C22.7815 26.3047 21.3299 26.7469 19.854 26.6925C18.3781 26.6382 16.963 26.0903 15.8353 25.1366C14.7075 24.1829 13.9322 22.8785 13.6335 21.4321C13.4018 20.3106 13.467 19.154 13.8145 18.0745C13.9821 17.5541 14.5842 17.3557 15.0738 17.5992V17.5992C15.5634 17.8426 15.7512 18.4366 15.6174 18.9667C15.4479 19.6387 15.4306 20.3446 15.5725 21.0316C15.7817 22.0441 16.3244 22.9571 17.1138 23.6247C17.9032 24.2923 18.8938 24.6758 19.9269 24.7139C20.9601 24.752 21.9761 24.4424 22.8126 23.8347C23.649 23.227 24.2574 22.3564 24.5405 21.362C24.8236 20.3677 24.7649 19.3071 24.374 18.35C23.983 17.3929 23.2824 16.5946 22.3841 16.0828C21.7745 15.7355 21.0979 15.5338 20.4064 15.4874C19.8609 15.4508 19.3541 15.0886 19.2738 14.5477V14.5477Z" fill="#26A9E1"/>
<circle cx="20" cy="20" r="4" fill="#1A75BB"/>
<circle cx="13" cy="27.6" r="3" fill="#26A9E1"/>
</svg>
