<svg width="30" height="30" viewBox="0 0 30 30" fill="none" xmlns="http://www.w3.org/2000/svg">
<path d="M15 30C23.2843 30 30 23.2843 30 15C30 6.71573 23.2843 0 15 0C6.71573 0 0 6.71573 0 15C0 23.2843 6.71573 30 15 30Z" fill="black"/>
<path d="M9.07455 17.8634C8.6139 18.0882 8.05208 17.8983 7.8858 17.4134C7.42776 16.0781 7.35392 14.6339 7.68285 13.2481C8.08358 11.5598 9.05723 10.0627 10.4381 9.01185C11.8188 7.96103 13.5212 7.4215 15.2552 7.48515C16.9892 7.54883 18.6476 8.21175 19.9475 9.36098C21.2476 10.5102 22.1089 12.0746 22.3847 13.7878C22.6606 15.5008 22.3339 17.2566 21.4604 18.7558C20.5868 20.2551 19.2205 21.4051 17.5941 22.0098C16.2592 22.5062 14.8168 22.6101 13.4354 22.3193C12.9337 22.2137 12.6763 21.6795 12.843 21.1947C13.0097 20.7099 13.538 20.4604 14.0435 20.5454C15.0134 20.7087 16.0151 20.6164 16.9471 20.2698C18.1709 19.8148 19.199 18.9494 19.8563 17.8213C20.5137 16.6931 20.7595 15.3719 20.5519 14.0829C20.3444 12.7938 19.6962 11.6166 18.718 10.7519C17.7398 9.88703 16.4919 9.3882 15.1871 9.34028C13.8824 9.29243 12.6013 9.6984 11.5623 10.4891C10.5233 11.2799 9.79058 12.4064 9.48908 13.6768C9.25943 14.6443 9.2907 15.6497 9.57165 16.5923C9.71813 17.0836 9.5352 17.6384 9.07455 17.8634Z" fill="#1A75BB"/>
<path d="M14.4554 10.9108C14.3952 10.5052 14.6762 10.1216 15.0863 10.1227C15.9368 10.1251 16.7769 10.3467 17.5232 10.7718C18.4856 11.3202 19.2364 12.1755 19.6553 13.201C20.0741 14.2264 20.1369 15.3627 19.8336 16.4281C19.5303 17.4934 18.8784 18.4264 17.9823 19.0774C17.0861 19.7285 15.9974 20.0602 14.8905 20.0194C13.7836 19.9786 12.7223 19.5677 11.8765 18.8525C11.0306 18.1372 10.4492 17.1589 10.2251 16.0741C10.0514 15.2329 10.1003 14.3655 10.3609 13.5559C10.4866 13.1656 10.9382 13.0168 11.3054 13.1994C11.6726 13.3819 11.8134 13.8274 11.7131 14.225C11.5859 14.729 11.573 15.2585 11.6794 15.7737C11.8363 16.5331 12.2433 17.2178 12.8354 17.7185C13.4274 18.2192 14.1704 18.5068 14.9452 18.5354C15.7201 18.564 16.4821 18.3318 17.1095 17.876C17.7368 17.4202 18.1931 16.7673 18.4054 16.0215C18.6177 15.2758 18.5737 14.4803 18.2805 13.7625C17.9873 13.0447 17.4618 12.4459 16.7881 12.0621C16.3309 11.8016 15.8234 11.6503 15.3048 11.6155C14.8957 11.5881 14.5156 11.3164 14.4554 10.9108Z" fill="#26A9E1"/>
<path d="M15 18C16.6569 18 18 16.6569 18 15C18 13.3431 16.6569 12 15 12C13.3431 12 12 13.3431 12 15C12 16.6569 13.3431 18 15 18Z" fill="#1A75BB"/>
<path d="M9.75 22.95C10.9926 22.95 12 21.9426 12 20.7C12 19.4574 10.9926 18.45 9.75 18.45C8.50736 18.45 7.5 19.4574 7.5 20.7C7.5 21.9426 8.50736 22.95 9.75 22.95Z" fill="#26A9E1"/>
</svg>
